<?xml version="1.0" encoding="UTF-8" standalone="no"?>
<!-- Created with Inkscape (http://www.inkscape.org/) -->

<svg
   xmlns:dc="http://purl.org/dc/elements/1.1/"
   xmlns:cc="http://creativecommons.org/ns#"
   xmlns:rdf="http://www.w3.org/1999/02/22-rdf-syntax-ns#"
   xmlns:svg="http://www.w3.org/2000/svg"
   xmlns="http://www.w3.org/2000/svg"
   xmlns:sodipodi="http://sodipodi.sourceforge.net/DTD/sodipodi-0.dtd"
   xmlns:inkscape="http://www.inkscape.org/namespaces/inkscape"
   width="64"
   height="64"
   id="svg3020"
   version="1.1"
   inkscape:version="0.48.4 r9939"
   sodipodi:docname="ipsilon.svg">
  <defs
     id="defs3022" />
  <sodipodi:namedview
     id="base"
     pagecolor="#ffffff"
     bordercolor="#666666"
     borderopacity="1.0"
     inkscape:pageopacity="0.0"
     inkscape:pageshadow="2"
     inkscape:zoom="2.5"
     inkscape:cx="21.158368"
     inkscape:cy="11.643493"
     inkscape:document-units="px"
     inkscape:current-layer="layer1"
     showgrid="false"
     inkscape:snap-global="false"
     inkscape:window-width="1037"
     inkscape:window-height="652"
     inkscape:window-x="1657"
     inkscape:window-y="717"
     inkscape:window-maximized="0" />
  <metadata
     id="metadata3025">
    <rdf:RDF>
      <cc:Work
         rdf:about="">
        <dc:format>image/svg+xml</dc:format>
        <dc:type
           rdf:resource="http://purl.org/dc/dcmitype/StillImage" />
        <dc:title />
      </cc:Work>
    </rdf:RDF>
  </metadata>
  <g
     inkscape:label="Layer 1"
     inkscape:groupmode="layer"
     id="layer1"
     transform="translate(0,-988.3622)">
    <g
       style="font-size:40px;font-style:normal;font-weight:normal;line-height:125%;letter-spacing:0px;word-spacing:0px;fill:#d3bc5f;fill-opacity:1;stroke:#000000;stroke-width:0.75;stroke-linecap:butt;stroke-linejoin:miter;stroke-miterlimit:4;stroke-opacity:1;stroke-dasharray:none;font-family:Sans"
       id="text3028"
       transform="matrix(1.5,0,0,1.5,0.129688,-526.11715)">
      <path
         d="m 28.567187,1019.8302 c -2.083352,0.9375 -3.658872,3.1576 -4.726562,6.6602 -0.546891,1.8359 -0.820329,3.8281 -0.820313,5.9765 l 0,12.6953 -1.982421,1.8996 -1.982422,-1.8996 c 0,0 1.197426,-0.5319 1.197426,-0.7964 0,-0.2645 -1.197426,-0.7905 -1.197426,-0.7905 0,0 1.197426,-0.532 1.197426,-0.7965 0,-0.2645 -1.197426,-0.7904 -1.197426,-0.7904 0,0 1.197426,-0.5319 1.197426,-0.7964 0,-0.2645 -1.197426,-0.7905 -1.197426,-0.7905 0,0 1.197426,-0.532 1.197426,-0.7965 0,-0.2644 -1.197426,-0.7904 -1.197426,-0.7904 l 0,-6.3477 c -1.2e-5,-2.1484 -0.27345,-4.1406 -0.820313,-5.9765 -1.067718,-3.5026 -2.643237,-5.7227 -4.726562,-6.6602 -1.00261,-0.4557 -1.894536,-0.6836 -2.675782,-0.6836 -0.768232,0 -1.4127623,0.059 -1.9335934,0.1758 l 0,-3.3203 c 0.4036437,-0.1302 0.963539,-0.1953 1.6796874,-0.1953 0.729163,0 1.64713,0.085 2.753906,0.2539 4.205719,0.625 6.777331,3.5286 7.714844,8.7109 1.393214,-4.9349 3.958316,-7.8385 7.695313,-8.7109 0.494769,-0.1172 1.048154,-0.1758 1.660156,-0.1758 0.624976,0 1.210913,0.2084 1.757812,0.625 1.080703,0.8333 1.621067,1.8425 1.621094,3.0273 -2.7e-5,0.5339 -0.110703,1.1068 -0.332031,1.7188 -0.325547,0.8594 -0.976588,1.2891 -1.953125,1.289 -1.731794,1e-4 -2.708355,-0.9049 -2.929688,-2.7148"
         id="path3801"
         inkscape:connector-curvature="0"
         sodipodi:nodetypes="ccscccsczcccscsccsccscccsccccc"
         style="fill:#d3bc5f;stroke:#000000;stroke-width:0.75;stroke-linecap:butt;stroke-linejoin:miter;stroke-miterlimit:4;stroke-opacity:1;stroke-dasharray:none" />
    </g>
  </g>
</svg>
